<svg width="67" height="67" viewBox="0 0 67 67" fill="none" xmlns="http://www.w3.org/2000/svg">
<path d="M46.1278 6.73491L46.1284 6.73576L56.6251 21.8108L56.6255 21.8113C57.5329 23.1113 58.0212 24.6577 58.025 26.2431V55.8333C58.025 57.8954 57.2059 59.873 55.7478 61.3311C54.2897 62.7892 52.3121 63.6083 50.25 63.6083H16.75C14.6879 63.6083 12.7103 62.7892 11.2522 61.3311C9.79415 59.873 8.975 57.8954 8.975 55.8333V11.1667C8.975 9.1046 9.79415 7.127 11.2522 5.6689C12.7103 4.21081 14.6879 3.39166 16.75 3.39166H39.7528C41.0062 3.3938 42.2404 3.69889 43.3503 4.28095L43.6284 3.75061L43.3503 4.28095C44.4605 4.86308 45.4134 5.70498 46.1278 6.73491ZM39.7543 7.77499H39.7533H16.75C15.8505 7.77499 14.9878 8.13232 14.3517 8.76838C13.7157 9.40445 13.3583 10.2671 13.3583 11.1667V55.8333C13.3583 56.7328 13.7157 57.5955 14.3517 58.2316C14.9878 58.8677 15.8505 59.225 16.75 59.225H50.25C51.1495 59.225 52.0122 58.8677 52.6483 58.2316C53.2843 57.5955 53.6417 56.7328 53.6417 55.8333L53.6417 26.2417L53.6417 26.2402C53.64 25.5486 53.427 24.8741 53.0312 24.307L42.5355 9.2334L42.0425 9.57541L42.5349 9.23255L42.5351 9.23283C42.2235 8.78382 41.8079 8.41676 41.3239 8.16292C40.8396 7.90898 40.3011 7.77589 39.7543 7.77499Z" fill="#0C49CD" stroke="white" stroke-width="1.2"/>
<path d="M35.6915 33.5V34.1H36.2915H45.4761C45.7731 34.1 46.1047 34.2711 46.3863 34.6675C46.6662 35.0616 46.8582 35.6351 46.8582 36.2916C46.8582 36.9482 46.6662 37.5217 46.3863 37.9158C46.1047 38.3122 45.7731 38.4833 45.4761 38.4833H36.2915H35.6915V39.0833V48.2679C35.6915 48.5649 35.5204 48.8965 35.124 49.1781C34.7299 49.458 34.1564 49.65 33.4998 49.65C32.8433 49.65 32.2698 49.458 31.8757 49.1781C31.4793 48.8965 31.3082 48.5649 31.3082 48.2679V39.0833V38.4833H30.7082H21.5236C21.2266 38.4833 20.895 38.3122 20.6134 37.9158C20.3335 37.5217 20.1415 36.9482 20.1415 36.2916C20.1415 35.6351 20.3335 35.0616 20.6134 34.6675C20.895 34.2711 21.2266 34.1 21.5236 34.1H30.7082H31.3082V33.5V24.3154C31.3082 24.0184 31.4793 23.6868 31.8757 23.4052C32.2698 23.1253 32.8433 22.9333 33.4998 22.9333C34.1564 22.9333 34.7299 23.1253 35.124 23.4052C35.5204 23.6868 35.6915 24.0184 35.6915 24.3154V33.5Z" fill="#0C49CD" stroke="white" stroke-width="1.2"/>
</svg>
