<svg width="63" height="63" viewBox="0 0 63 63" fill="none" xmlns="http://www.w3.org/2000/svg">
<path d="M14.9278 48.835L14.9187 48.8264L14.9092 48.8182C10.0518 44.6088 6.44071 39.1492 4.4677 33.0325C3.77274 29.3223 3.54008 25.5402 3.77507 21.7727L3.77572 21.7622L3.77601 21.7517C3.88037 17.9163 4.21967 14.4959 4.3507 13.1856C4.38497 12.8481 4.48626 12.5208 4.64862 12.2229L4.12179 11.9357L4.64862 12.2229C4.81103 11.9249 5.0313 11.6623 5.2965 11.4505C5.5617 11.2388 5.86651 11.0821 6.19306 10.9896C6.51765 10.8977 6.85723 10.8712 7.19213 10.9114C8.94749 11.1648 10.7152 11.324 12.4875 11.3883C14.6588 11.5536 16.8427 11.3801 18.9607 10.874L18.9909 10.8667L19.0202 10.8564C21.2773 10.0629 23.3899 8.9069 25.275 7.43385C26.7975 6.30225 28.258 5.08943 29.6501 3.80067L29.6501 3.8007L29.655 3.79609C30.1286 3.34773 30.7559 3.09786 31.4081 3.09786C32.0603 3.09786 32.6876 3.34773 33.1612 3.79609L33.1619 3.79675C34.5381 5.09548 35.9915 6.30988 37.5142 7.43332C39.3764 8.90809 41.4749 10.057 43.7206 10.8314L43.7388 10.8376L43.7573 10.8427C44.2757 10.9851 44.7163 11.3275 44.9822 11.7947C45.2481 12.2619 45.3175 12.8156 45.1751 13.334C45.0328 13.8524 44.6903 14.293 44.2231 14.5589C43.7593 14.8229 43.2101 14.8932 42.695 14.7548C39.9183 13.8677 37.3196 12.4982 35.0182 10.7092L35.0032 10.6975L34.9874 10.6867C33.7041 9.81411 32.5705 8.86144 31.6793 8.10138L31.3036 7.78089L30.9169 8.08802C30.7286 8.23754 30.5297 8.39664 30.3211 8.56358C29.5319 9.1951 28.6026 9.93875 27.5731 10.7006L27.5674 10.7048L27.5617 10.7092C25.2992 12.468 22.758 13.8352 20.0437 14.7541C17.5385 15.3758 14.9522 15.6073 12.3763 15.4404L12.3689 15.4399L12.3615 15.4396C11.7632 15.4157 11.1803 15.3579 10.6115 15.3015C10.5765 15.298 10.5415 15.2946 10.5065 15.2911C9.9144 15.2325 9.32705 15.1766 8.79373 15.1766H8.24985L8.19661 15.7179C8.18301 15.8561 8.16879 15.9989 8.15415 16.1457C8.00051 17.6869 7.80105 19.6878 7.79998 21.8232C7.60556 25.2516 7.80224 28.691 8.38622 32.0749L8.39402 32.1201L8.4086 32.1636C10.2086 37.5327 13.4332 42.3118 17.7378 45.9908C21.4659 49.5055 25.5032 52.6768 29.8009 55.4663C30.2426 55.7707 30.7665 55.9338 31.3031 55.9338C31.8431 55.9338 32.3701 55.7687 32.8135 55.4607L32.8159 55.459C36.8849 52.6032 40.7022 49.4048 44.2263 45.8988C48.277 42.1617 51.3035 37.4499 53.0177 32.212L53.0252 32.1891L53.0309 32.1656C53.1559 31.6455 53.4816 31.1961 53.9369 30.9153C54.3922 30.6346 54.94 30.5453 55.4609 30.6671L55.4629 30.6676C55.7223 30.7273 55.9673 30.8375 56.1841 30.992C56.4008 31.1464 56.585 31.3421 56.726 31.5678C56.8671 31.7935 56.9623 32.0447 57.0061 32.3072C57.0488 32.5628 57.0421 32.8241 56.9864 33.0769C55.1162 39.0535 51.7191 44.4388 47.1304 48.7008L47.1226 48.708L47.115 48.7156C43.4236 52.3985 39.4295 55.7649 35.1748 58.7795C34.0546 59.5361 32.7337 59.9405 31.3819 59.9405C30.0279 59.9405 28.705 59.5349 27.5838 58.776L27.5838 58.7759L27.5742 58.7697C23.069 55.8445 18.8365 52.5195 14.9278 48.835Z" fill="#0C49CD" stroke="white" stroke-width="1.2"/>
<path d="M30.7093 21.9497L30.7123 21.9523L37.5373 27.8848L37.9473 28.2412L38.3426 27.8685L55.8765 11.332C55.8767 11.3318 55.8769 11.3316 55.8771 11.3314C56.2692 10.9638 56.7912 10.7669 57.3285 10.7839C57.866 10.801 58.3747 11.031 58.7427 11.4232C59.1107 11.8153 59.3079 12.3376 59.2908 12.8752C59.2737 13.4127 59.0438 13.9214 58.6516 14.2894L58.6515 14.2895L39.4471 32.3133C38.9475 32.7364 38.3028 32.9489 37.6492 32.9056C36.9913 32.862 36.3765 32.5626 35.9365 32.0716L35.9139 32.0463L35.8885 32.0238L28.0135 25.015L28.0135 25.015L28.0112 25.013C27.605 24.6552 27.3576 24.1507 27.3233 23.6104C27.3064 23.3429 27.3423 23.0747 27.429 22.8211C27.5157 22.5675 27.6515 22.3334 27.8286 22.1323C28.0058 21.9312 28.2208 21.7669 28.4615 21.6489C28.7021 21.5308 28.9637 21.4613 29.2312 21.4444C29.4987 21.4274 29.7669 21.4633 30.0205 21.55C30.2741 21.6367 30.5082 21.7726 30.7093 21.9497Z" fill="#0C49CD" stroke="white" stroke-width="1.2"/>
</svg>
