<svg width="59" height="62" viewBox="0 0 59 62" fill="none" xmlns="http://www.w3.org/2000/svg">
<path fill-rule="evenodd" clip-rule="evenodd" d="M13.3802 48.816C17.565 52.7607 21.0569 56.1842 25.8802 59.316C27.1783 60.1945 28.3128 60.316 29.8802 60.316C31.4476 60.316 32.5822 60.1945 33.8802 59.316C38.4364 56.0884 42.4275 52.7596 46.3802 48.816C51.3499 44.2088 54.8821 39.2914 56.8802 32.816C57.6368 28.8059 57.6363 24.8888 57.3802 20.816C57.3802 16.7402 57.5198 15.1839 57.3802 13.816C57.3357 13.3671 57.0971 11.7116 56.8802 11.316C56.6633 10.9204 56.9379 10.3852 56.5834 10.1062C56.2288 9.82725 56.3158 9.43372 55.8802 9.31601C55.4447 9.1983 54.827 9.25365 54.3802 9.31601C52.7422 9.55187 51.034 9.7543 49.3802 9.81601C47.3712 9.90172 45.3343 9.79062 43.3802 9.31601C41.0539 8.52082 38.8027 7.34849 36.8802 5.81607C35.2784 4.63474 33.8278 3.68213 32.3802 2.31607C31.7581 1.72705 30.737 1.31601 29.8802 1.31601C29.0235 1.31601 28.5024 1.72699 27.8802 2.31601C26.4411 3.66088 24.4538 4.63162 22.88 5.81607C20.9283 7.34221 18.7173 8.49427 16.38 9.31601C14.1878 9.83984 12.1273 9.98837 9.88002 9.81601C8.01125 9.74868 6.23078 9.58344 4.38002 9.31601C3.93749 9.26172 3.30901 9.69456 2.88002 9.81601C2.45103 9.93746 2.22842 10.0378 1.88002 10.316C1.53161 10.5942 1.59339 10.8829 1.38002 11.2744C1.16665 11.6658 1.425 12.8724 1.38002 13.316C1.24044 14.7118 0.992015 16.3273 0.880348 20.431C0.626324 24.5038 1.12544 28.3057 1.88002 32.316C4.00085 38.9527 8.1074 44.2618 13.3802 48.816ZM4.88002 20.431C4.88002 17.9744 5.21274 15.0189 5.38024 13.316C6.44107 13.316 8.48419 13.2602 9.88002 13.316C12.6939 13.4983 15.1439 13.4978 17.88 12.816C20.9024 11.8332 23.3598 10.7523 25.88 8.81601C27.2759 7.78309 28.9311 6.06979 29.8802 5.31604C30.8294 6.12562 32.9844 7.86684 34.3802 8.81601C36.8907 10.7676 39.3508 11.8499 42.3802 12.816C44.8684 13.3869 46.8315 13.461 49.3802 13.316L53.8802 12.816C54.0198 14.5189 54.2965 18.8593 54.3802 21.316C54.5796 24.8918 53.9877 28.2866 53.3802 31.816C51.5978 37.2838 48.1022 42.411 43.8802 46.316C40.1558 50.0224 36.1811 53.7975 31.8802 56.816C31.5155 57.0694 30.3243 57.316 29.8802 57.316C29.4361 57.316 28.745 57.0694 28.3802 56.816C23.8346 53.8662 19.3225 50.034 15.3802 46.316C10.8842 42.4772 7.25942 36.9213 5.38024 31.316C4.76761 27.8059 4.69409 23.9893 4.88002 20.431Z" fill="#0C49CD"/>
<path fill-rule="evenodd" clip-rule="evenodd" d="M26.524 59.1016L26.5358 59.1096C27.5857 59.8202 28.8243 60.1999 30.092 60.1999C31.3546 60.1999 32.5884 59.8232 33.6356 59.1181C38.118 55.9415 42.326 52.3944 46.2152 48.5141L46.2347 48.4947L46.2549 48.476C51.0107 44.0671 54.5267 38.4884 56.4526 32.297C57.1739 28.4363 57.4141 24.501 57.1676 20.581L57.1647 20.534V20.4869C57.1647 17.0596 56.8215 13.9431 56.6344 12.2443C56.6043 11.9707 56.5782 11.7338 56.5583 11.5383L56.5578 11.5341C56.5332 11.2862 56.4588 11.0458 56.339 10.8274C56.2193 10.6089 56.0566 10.4169 55.8608 10.2628C55.665 10.1088 55.4401 9.99588 55.1996 9.93088C54.96 9.86611 54.7098 9.85023 54.4639 9.88417C52.7761 10.1271 51.0766 10.2807 49.3726 10.3444C47.2243 10.4357 45.0739 10.2245 42.9844 9.71699L42.918 9.70085L42.8533 9.67874C40.3729 8.8309 38.0565 7.56375 36.0048 5.9325C34.3624 4.71988 32.7946 3.40941 31.3098 2.00821L31.308 2.00656C30.9644 1.68128 30.5093 1.5 30.0361 1.5C29.563 1.5 29.1078 1.68128 28.7643 2.00656L28.7572 2.01323C27.2826 3.39131 25.7358 4.69011 24.1235 5.90418C22.046 7.52672 19.7182 8.80015 17.2313 9.67446L17.158 9.70023L17.0825 9.71829C14.7486 10.276 12.3424 10.468 9.94974 10.2877C8.04351 10.218 6.14235 10.0467 4.25435 9.77451C4.01434 9.74686 3.7712 9.76648 3.53865 9.83231C3.30175 9.89938 3.08061 10.0131 2.88821 10.1667C2.69581 10.3203 2.53601 10.5108 2.41818 10.727C2.30051 10.9429 2.22706 11.1801 2.20212 11.4247C2.0631 12.815 1.70503 16.4263 1.59495 20.4718L1.59424 20.4981L1.5926 20.5244C1.34824 24.4422 1.58798 28.3751 2.30631 32.2341C4.34942 38.5719 8.09555 44.2269 13.136 48.5804L12.1555 49.7156C6.88267 45.1614 2.97008 39.2394 0.849257 32.6027C0.0946739 28.5924 -0.158517 24.5038 0.0955071 20.431C0.207174 16.3273 0.570091 12.6702 0.709674 11.2744C0.754657 10.8308 0.887731 10.4007 1.1011 10.0092C1.31446 9.61769 1.60383 9.27274 1.95223 8.99454C2.30064 8.71633 2.70107 8.51048 3.13006 8.38903C3.55906 8.26758 4.00797 8.23299 4.45051 8.28728C6.30127 8.55471 8.16507 8.72246 10.0338 8.78978C12.2812 8.96215 14.5416 8.78319 16.7338 8.25937C19.0712 7.43763 21.2588 6.24009 23.2105 4.71395C24.7843 3.5295 26.2939 2.26216 27.733 0.917282C28.3552 0.32826 29.1794 0 30.0361 0C30.8929 0 31.7171 0.32826 32.3393 0.917282C33.7868 2.28334 35.3157 3.56054 36.9176 4.74187C38.8401 6.27429 41.0121 7.46417 43.3384 8.25937C45.2925 8.73397 47.3036 8.93132 49.3126 8.84562C50.9664 8.78391 52.6158 8.63481 54.2538 8.39895C54.7007 8.33659 55.1555 8.36513 55.591 8.48284C56.0265 8.60055 56.4337 8.80502 56.7883 9.08397C57.1428 9.36293 57.4374 9.71062 57.6543 10.1062C57.8712 10.5018 58.006 10.9371 58.0505 11.386C58.0696 11.5731 58.095 11.8031 58.1245 12.0711C58.311 13.7623 58.6647 16.9685 58.6647 20.4869C58.9207 24.5596 58.6675 28.6485 57.9109 32.6585C55.9128 39.134 52.2443 44.9689 47.2747 49.576C43.3219 53.5196 39.045 57.1242 34.4888 60.3519C33.1908 61.2304 31.6594 61.6999 30.092 61.6999C28.5246 61.6999 26.9931 61.2304 25.6951 60.3519C20.8717 57.2201 16.3402 53.6603 12.1555 49.7156L13.1844 48.6241C17.3036 52.507 21.7641 56.0111 26.5119 59.0938L26.524 59.1016ZM4.70998 12.594H6.06967C6.68652 12.594 7.3536 12.6583 7.97605 12.7199C8.01129 12.7234 8.04648 12.7268 8.08161 12.7303C8.69189 12.7908 9.28832 12.8499 9.89838 12.8743L9.9169 12.8751L9.93539 12.8763C12.5773 13.0474 15.2297 12.8114 17.7996 12.1766C20.6408 11.2464 23.3037 9.84061 25.6746 8.01906L25.6853 8.01082L25.6962 8.00277C26.7765 7.2033 27.7485 6.42558 28.5868 5.75475C28.8105 5.57575 29.0247 5.40436 29.2289 5.2422L30.1958 4.47439L31.1352 5.27561C32.0809 6.08222 33.2558 7.06868 34.5786 7.96814L34.618 7.99498L34.6557 8.02428C37.0104 9.85474 39.6675 11.2582 42.5064 12.1712C44.8357 12.6997 47.2276 12.8993 49.6125 12.7642C49.6144 12.7641 49.6163 12.764 49.6182 12.7639L54.0929 12.4738L54.2134 13.9435C54.3536 15.6543 54.5228 17.9912 54.6078 20.4754C54.812 24.1588 54.5991 27.8536 53.9734 31.4892L53.9549 31.5963L53.9212 31.6997C52.0623 37.4021 48.777 42.5347 44.3773 46.6105C40.5975 50.3697 36.5036 53.7993 32.1401 56.8617L32.1342 56.8659C31.5182 57.2938 30.7861 57.5231 30.0361 57.5231C29.295 57.5231 28.5714 57.2992 27.96 56.881C23.3553 53.8914 19.0291 50.4935 15.0336 46.7284C10.3449 42.7162 6.83248 37.5071 4.8708 31.6558L4.83481 31.5484L4.81534 31.4369C4.18559 27.8287 3.96274 24.1613 4.15094 20.5034C4.15337 18.1952 4.36888 16.0345 4.5316 14.4031C4.54726 14.2461 4.56243 14.094 4.57688 13.9471L4.70998 12.594ZM16.0359 45.6119C19.9782 49.3298 24.2482 52.6841 28.7938 55.6339C29.1586 55.8873 29.592 56.0231 30.0361 56.0231C30.4802 56.0231 30.9137 55.8873 31.2784 55.6339C35.5793 52.6154 39.614 49.2345 43.3384 45.5281C47.5604 41.6231 50.7126 36.7026 52.4951 31.2348C53.1026 27.7053 53.3086 24.1185 53.1093 20.5427C53.0255 18.086 52.858 15.769 52.7184 14.066L49.7034 14.2614C47.1547 14.4064 44.5983 14.1902 42.1101 13.6194C39.0807 12.6533 36.2455 11.1601 33.7351 9.20853C32.3393 8.25937 31.1109 7.22645 30.1618 6.41687C29.9644 6.57359 29.755 6.74117 29.5345 6.91761C28.6946 7.58975 27.694 8.39038 26.5884 9.20853C24.0682 11.1448 21.2358 12.6365 18.2134 13.6194C15.4774 14.3011 12.6523 14.5554 9.83842 14.3731C9.18268 14.3469 8.54541 14.2837 7.944 14.224C7.26524 14.1567 6.63214 14.094 6.06967 14.094C6.05521 14.241 6.04011 14.3925 6.02461 14.5481C5.86064 16.1936 5.65092 18.2982 5.65092 20.5427C5.46499 24.101 5.68038 27.6689 6.29301 31.179C8.17219 36.7842 11.5399 41.7731 16.0359 45.6119Z" fill="white"/>
<path d="M31 19.1875C31 18 30.2325 17.5 29.5 17.5C28.7675 17.5 28 18 28 19V34.1875C28 35.5682 28.736 36 29.5 36C30.264 36 31 35.5682 31 34.1875V26.5V19.1875Z" fill="#0C49CD"/>
<path fill-rule="evenodd" clip-rule="evenodd" d="M30.8625 19.1875C30.8625 18.4695 30.2805 17.8875 29.5625 17.8875C28.8445 17.8875 28.2625 18.4695 28.2625 19.1875V34.1875C28.2625 34.9055 28.8445 35.4875 29.5625 35.4875C30.2805 35.4875 30.8625 34.9055 30.8625 34.1875V19.1875ZM29.5625 16.6875C30.9432 16.6875 32.0625 17.8068 32.0625 19.1875V34.1875C32.0625 35.5682 30.9432 36.6875 29.5625 36.6875C28.1818 36.6875 27.0625 35.5682 27.0625 34.1875V19.1875C27.0625 17.8068 28.1818 16.6875 29.5625 16.6875Z" fill="white"/>
<path d="M29.5 44.5C30.8807 44.5 31.5 43.9016 31.5 42.5208C31.5 41.1401 30.8807 40.5 29.5 40.5C28.1193 40.5 27.5 41.1401 27.5 42.5208C27.5 43.9016 28.1193 44.5 29.5 44.5Z" fill="#0C49CD"/>
<path fill-rule="evenodd" clip-rule="evenodd" d="M29.5625 44.2208C30.5014 44.2208 31.2625 43.4597 31.2625 42.5208C31.2625 41.582 30.5014 40.8208 29.5625 40.8208C28.6236 40.8208 27.8625 41.582 27.8625 42.5208C27.8625 43.4597 28.6236 44.2208 29.5625 44.2208ZM32.0625 42.5208C32.0625 43.9016 30.9432 45.0208 29.5625 45.0208C28.1818 45.0208 27.0625 43.9016 27.0625 42.5208C27.0625 41.1401 28.1818 40.0208 29.5625 40.0208C30.9432 40.0208 32.0625 41.1401 32.0625 42.5208Z" fill="white"/>
</svg>
