<svg width="69" height="69" viewBox="0 0 69 69" fill="none" xmlns="http://www.w3.org/2000/svg">
<path d="M8.625 58.25H60.375C60.9386 58.25 61.4791 58.4739 61.8776 58.8724C62.2761 59.2709 62.5 59.8114 62.5 60.375C62.5 60.9386 62.2761 61.4791 61.8776 61.8776C61.4791 62.2761 60.9386 62.5 60.375 62.5H8.625C8.06141 62.5 7.52091 62.2761 7.1224 61.8776C6.72388 61.4791 6.5 60.9386 6.5 60.375C6.5 59.8114 6.72388 59.2709 7.1224 58.8724C7.52091 58.4739 8.06141 58.25 8.625 58.25Z" fill="#0C49CD" stroke="white" stroke-width="1.5"/>
<path d="M12.25 51.75V31.625C12.25 31.0614 12.4739 30.5209 12.8724 30.1224C13.2709 29.7239 13.8114 29.5 14.375 29.5C14.9386 29.5 15.4791 29.7239 15.8776 30.1224L16.4079 29.5921L15.8776 30.1224C16.2761 30.5209 16.5 31.0614 16.5 31.625V51.75C16.5 52.3136 16.2761 52.8541 15.8776 53.2526C15.4791 53.6511 14.9386 53.875 14.375 53.875C13.8114 53.875 13.2709 53.6511 12.8724 53.2526C12.4739 52.8541 12.25 52.3136 12.25 51.75Z" fill="#0C49CD" stroke="white" stroke-width="1.5"/>
<path d="M26.625 51.75V31.625C26.625 31.0614 26.8489 30.5209 27.2474 30.1224C27.6459 29.7239 28.1864 29.5 28.75 29.5C29.3136 29.5 29.8541 29.7239 30.2526 30.1224L30.7829 29.5921L30.2526 30.1224C30.6511 30.5209 30.875 31.0614 30.875 31.625V51.75C30.875 52.3136 30.6511 52.8541 30.2526 53.2526C29.8541 53.6511 29.3136 53.875 28.75 53.875C28.1864 53.875 27.6459 53.6511 27.2474 53.2526C26.8489 52.8541 26.625 52.3136 26.625 51.75Z" fill="#0C49CD" stroke="white" stroke-width="1.5"/>
<path d="M41 51.75V31.625C41 31.0614 41.2239 30.5209 41.6224 30.1224C42.0209 29.7239 42.5614 29.5 43.125 29.5C43.6886 29.5 44.2291 29.7239 44.6276 30.1224L45.1579 29.5921L44.6276 30.1224C45.0261 30.5209 45.25 31.0614 45.25 31.625V51.75C45.25 52.3136 45.0261 52.8541 44.6276 53.2526C44.2291 53.6511 43.6886 53.875 43.125 53.875C42.5614 53.875 42.0209 53.6511 41.6224 53.2526C41.2239 52.8541 41 52.3136 41 51.75Z" fill="#0C49CD" stroke="white" stroke-width="1.5"/>
<path d="M55.375 51.75V31.625C55.375 31.0614 55.5989 30.5209 55.9974 30.1224C56.3959 29.7239 56.9364 29.5 57.5 29.5C58.0636 29.5 58.6041 29.7239 59.0026 30.1224C59.4011 30.5209 59.625 31.0614 59.625 31.625V51.75C59.625 52.3136 59.4011 52.8541 59.0026 53.2526C58.6041 53.6511 58.0636 53.875 57.5 53.875C56.9364 53.875 56.3959 53.6511 55.9974 53.2526C55.5989 52.8541 55.375 52.3136 55.375 51.75Z" fill="#0C49CD" stroke="white" stroke-width="1.5"/>
<path d="M10.9538 25.1253H10.9423L10.9309 25.1257C10.1411 25.1498 9.36569 24.9106 8.72668 24.4458C8.08768 23.981 7.62134 23.3169 7.40103 22.5581C7.18073 21.7992 7.21895 20.9887 7.5097 20.254C7.80045 19.5192 8.32722 18.902 9.00714 18.4994L9.00714 18.4994L9.01064 18.4973L31.8381 4.81232L31.8388 4.81195C32.6164 4.34473 33.5065 4.0979 34.4138 4.0979C35.321 4.0979 36.2111 4.34473 36.9888 4.81196L36.9915 4.81359L59.9915 18.4986L59.9929 18.4994C60.6728 18.902 61.1996 19.5192 61.4903 20.254C61.7811 20.9887 61.8193 21.7992 61.599 22.5581C61.3787 23.3169 60.9123 23.981 60.2733 24.4458C59.6343 24.9106 58.8589 25.1498 58.0691 25.1257L58.0577 25.1253H58.0463H10.9538ZM34.8856 8.47076L34.5 8.23966L34.1144 8.47076L15.7432 19.482L13.4186 20.8753H16.1288H52.8713H55.5814L53.2568 19.482L34.8856 8.47076Z" fill="#0C49CD" stroke="white" stroke-width="1.5"/>
</svg>
