<svg width="59" height="63" viewBox="0 0 59 63" fill="none" xmlns="http://www.w3.org/2000/svg">
<path fill-rule="evenodd" clip-rule="evenodd" d="M13.4999 49.5C17.6846 53.4447 21.1765 56.8682 25.9999 60C27.2979 60.8785 28.4325 61 29.9999 61C31.5673 61 32.7019 60.8785 33.9999 60C38.556 56.7724 42.5471 53.4436 46.4999 49.5C51.4695 44.8928 55.0018 39.9754 56.9999 33.5C57.7565 29.4899 57.7559 25.5728 57.4999 21.5C57.4999 17.4242 57.6395 15.8679 57.4999 14.5C57.4553 14.0511 57.2168 12.3956 56.9999 12C56.783 11.6044 57.0576 11.0691 56.703 10.7902C56.3485 10.5112 56.4354 10.1177 55.9999 10C55.5644 9.88229 54.9467 9.93764 54.4999 10C52.8618 10.2359 51.1537 10.4383 49.4999 10.5C47.4909 10.5857 45.4539 10.4746 43.4999 10C41.1735 9.20481 38.9224 8.03248 36.9999 6.50006C35.398 5.31873 33.9474 4.36612 32.4999 3.00006C31.8777 2.41104 30.8566 2 29.9999 2C29.1431 2 28.6221 2.41098 27.9999 3C26.5608 4.34487 24.5734 5.31561 22.9997 6.50006C21.0479 8.0262 18.837 9.17826 16.4997 10C14.3075 10.5238 12.247 10.6724 9.99967 10.5C8.1309 10.4327 6.35043 10.2674 4.49967 10C4.05714 9.94571 3.42866 10.3786 2.99967 10.5C2.57068 10.6214 2.34808 10.7218 1.99967 11C1.65127 11.2782 1.71304 11.5669 1.49967 11.9584C1.2863 12.3498 1.54465 13.5564 1.49967 14C1.36009 15.3958 1.11167 17.0113 1 21.115C0.745976 25.1878 1.24509 28.9897 1.99967 33C4.1205 39.6367 8.22705 44.9458 13.4999 49.5ZM4.99967 21.115C4.99967 18.6584 5.33239 15.7029 5.49989 14C6.56072 14 8.60384 13.9442 9.99967 14C12.8135 14.1823 15.2636 14.1818 17.9997 13.5C21.0221 12.5172 23.4794 11.4363 25.9997 9.5C27.3955 8.46708 29.0507 6.75378 29.9999 6.00003C30.9491 6.80961 33.1041 8.55083 34.4999 9.5C37.0103 11.4516 39.4705 12.5339 42.4999 13.5C44.9881 14.0709 46.9512 14.145 49.4999 14L53.9999 13.5C54.1395 15.2029 54.4161 19.5433 54.4999 22C54.6992 25.5758 54.1074 28.9706 53.4999 32.5C51.7174 37.9678 48.2219 43.095 43.9999 47C40.2754 50.7064 36.3007 54.4815 31.9999 57.5C31.6352 57.7534 30.444 58 29.9999 58C29.5558 58 28.8646 57.7534 28.4999 57.5C23.9542 54.5502 19.4422 50.7179 15.4999 47C11.0039 43.1612 7.37907 37.6053 5.49989 32C4.88726 28.4899 4.81374 24.6733 4.99967 21.115Z" fill="#0C49CD"/>
<path fill-rule="evenodd" clip-rule="evenodd" d="M26.6436 59.7856L26.6555 59.7936C27.7053 60.5041 28.9439 60.8839 30.2116 60.8839C31.4742 60.8839 32.708 60.5071 33.7552 59.8021C38.2376 56.6255 42.4456 53.0784 46.3349 49.1981L46.3544 49.1787L46.3745 49.16C51.1303 44.7511 54.6463 39.1724 56.5722 32.9809C57.2935 29.1202 57.5337 25.1849 57.2873 21.2649L57.2843 21.2179V21.1708C57.2843 17.7436 56.9411 14.6271 56.7541 12.9283C56.7239 12.6546 56.6978 12.4177 56.6779 12.2223L56.6775 12.2181C56.6529 11.9702 56.5784 11.7298 56.4587 11.5113C56.3389 11.2929 56.1762 11.1009 55.9804 10.9468C55.7846 10.7928 55.5597 10.6798 55.3192 10.6148C55.0796 10.5501 54.8294 10.5342 54.5835 10.5681C52.8957 10.811 51.1962 10.9647 49.4922 11.0284C47.3439 11.1197 45.1935 10.9085 43.104 10.4009L43.0376 10.3848L42.9729 10.3627C40.4925 9.51486 38.1761 8.24771 36.1245 6.61646C34.482 5.40384 32.9142 4.09337 31.4294 2.69217L31.4276 2.69052C31.0841 2.36524 30.6289 2.18396 30.1558 2.18396C29.6826 2.18396 29.2275 2.36524 28.8839 2.69052L28.8768 2.69719C27.4022 4.07527 25.8554 5.37407 24.2431 6.58814C22.1657 8.21068 19.8378 9.48411 17.351 10.3584L17.2777 10.3842L17.2021 10.4023C14.8682 10.9599 12.462 11.152 10.0694 10.9717C8.16314 10.9019 6.26198 10.7306 4.37398 10.4585C4.13397 10.4308 3.89083 10.4504 3.65828 10.5163C3.42138 10.5833 3.20024 10.697 3.00784 10.8507C2.81544 11.0043 2.65564 11.1948 2.53781 11.411C2.42013 11.6269 2.34668 11.8641 2.32175 12.1087C2.18273 13.4989 1.82466 17.1103 1.71458 21.1558L1.71387 21.1821L1.71223 21.2084C1.46787 25.1262 1.70761 29.0591 2.42594 32.918C4.46905 39.2559 8.21518 44.9109 13.2556 49.2644L12.2751 50.3996C7.0023 45.8454 3.08971 39.9234 0.968886 33.2867C0.214303 29.2763 -0.038888 25.1878 0.215136 21.115C0.326803 17.0112 0.689719 13.3542 0.829303 11.9583C0.874286 11.5148 1.00736 11.0846 1.22073 10.6931C1.43409 10.3017 1.72346 9.9567 2.07186 9.6785C2.42027 9.40029 2.8207 9.19444 3.24969 9.07299C3.67868 8.95154 4.1276 8.91695 4.57014 8.97124C6.4209 9.23867 8.2847 9.40642 10.1535 9.47374C12.4008 9.64611 14.6613 9.46715 16.8535 8.94333C19.1908 8.12159 21.3784 6.92405 23.3301 5.39791C24.9039 4.21346 26.4135 2.94612 27.8526 1.60124C28.4748 1.01222 29.299 0.68396 30.1558 0.68396C31.0125 0.68396 31.8367 1.01222 32.4589 1.60124C33.9064 2.9673 35.4353 4.2445 37.0372 5.42583C38.9597 6.95825 41.1317 8.14813 43.4581 8.94333C45.4121 9.41793 47.4232 9.61528 49.4322 9.52958C51.086 9.46787 52.7354 9.31877 54.3735 9.08291C54.8203 9.02055 55.2751 9.04909 55.7106 9.1668C56.1461 9.28451 56.5534 9.48898 56.9079 9.76793C57.2625 10.0469 57.557 10.3946 57.7739 10.7902C57.9908 11.1857 58.1256 11.6211 58.1701 12.07C58.1892 12.2571 58.2146 12.487 58.2441 12.755C58.4307 14.4462 58.7843 17.6525 58.7843 21.1708C59.0404 25.2436 58.7872 29.3324 58.0306 33.3425C56.0324 39.8179 52.364 45.6528 47.3943 50.26C43.4416 54.2036 39.1646 57.8082 34.6085 61.0358C33.3104 61.9143 31.779 62.3839 30.2116 62.3839C28.6442 62.3839 27.1128 61.9143 25.8147 61.0358C20.9914 57.9041 16.4599 54.3443 12.2751 50.3996L13.304 49.3081C17.4232 53.191 21.8838 56.695 26.6316 59.7778L26.6436 59.7856ZM4.82961 13.2779H6.1893C6.80615 13.2779 7.47323 13.3423 8.09568 13.4038C8.13092 13.4073 8.1661 13.4108 8.20124 13.4143C8.81152 13.4748 9.40795 13.5339 10.018 13.5583L10.0365 13.559L10.055 13.5602C12.6969 13.7314 15.3493 13.4953 17.9193 12.8605C20.7605 11.9303 23.4233 10.5246 25.7942 8.70302L25.8049 8.69478L25.8158 8.68673C26.8962 7.88726 27.8681 7.10954 28.7065 6.43871C28.9302 6.25971 29.1444 6.08832 29.3486 5.92616L30.3154 5.15835L31.2548 5.95957C32.2005 6.76618 33.3755 7.75264 34.6982 8.6521L34.7377 8.67894L34.7753 8.70824C37.13 10.5387 39.7871 11.9422 42.626 12.8552C44.9553 13.3836 47.3473 13.5833 49.7321 13.4482C49.734 13.448 49.736 13.4479 49.7379 13.4478L54.2126 13.1578L54.333 14.6275C54.4733 16.3383 54.6424 18.6752 54.7275 21.1593C54.9316 24.8428 54.7188 28.5375 54.093 32.1732L54.0745 32.2803L54.0409 32.3836C52.1819 38.0861 48.8966 43.2187 44.4969 47.2945C40.7171 51.0537 36.6232 54.4832 32.2598 57.5457L32.2538 57.5499C31.6378 57.9777 30.9058 58.2071 30.1558 58.2071C29.4146 58.2071 28.691 57.9831 28.0796 57.5649C23.4749 54.5754 19.1487 51.1775 15.1532 47.4123C10.4646 43.4002 6.95211 38.191 4.99043 32.3397L4.95444 32.2324L4.93497 32.1208C4.30522 28.5126 4.08237 24.8452 4.27057 21.1874C4.273 18.8791 4.48851 16.7185 4.65123 15.087C4.66689 14.93 4.68206 14.7779 4.69651 14.6311L4.82961 13.2779ZM16.1556 46.2958C20.0978 50.0138 24.3678 53.3681 28.9135 56.3179C29.2782 56.5713 29.7117 56.7071 30.1558 56.7071C30.5999 56.7071 31.0333 56.5713 31.3981 56.3179C35.6989 53.2994 39.7336 49.9184 43.4581 46.2121C47.68 42.3071 50.8323 37.3865 52.6147 31.9187C53.2222 28.3893 53.4282 24.8024 53.2289 21.2267C53.1451 18.77 52.9776 16.4529 52.8381 14.75L49.8231 14.9454C47.2743 15.0904 44.7179 14.8742 42.2297 14.3033C39.2003 13.3372 36.3651 11.844 33.8547 9.89249C32.4589 8.94333 31.2306 7.91041 30.2814 7.10083C30.084 7.25755 29.8746 7.42513 29.6541 7.60157C28.8142 8.27371 27.8137 9.07434 26.7081 9.89249C24.1878 11.8288 21.3554 13.3205 18.3331 14.3033C15.597 14.9851 12.7719 15.2394 9.95805 15.0571C9.30231 15.0308 8.66504 14.9676 8.06363 14.908C7.38487 14.8407 6.75177 14.7779 6.1893 14.7779C6.17483 14.925 6.15974 15.0765 6.14424 15.2321C5.98027 16.8776 5.77055 18.9822 5.77055 21.2267C5.58462 24.7849 5.80001 28.3528 6.41264 31.8629C8.29182 37.4682 11.6596 42.457 16.1556 46.2958Z" fill="white"/>
</svg>
