<svg width="60" height="64" viewBox="0 0 60 64" fill="none" xmlns="http://www.w3.org/2000/svg">
<path fill-rule="evenodd" clip-rule="evenodd" d="M58.5 21.5C58.5 17.3633 58.1417 14.8883 58 13.5C57.9548 13.0444 58.2201 12.5399 58 12.1384C57.7799 11.7369 57.8599 11.2831 57.5 11C57.1401 10.7169 56.942 10.1195 56.5 10C56.058 9.88053 55.4535 9.93671 55 10C53.3375 10.2394 52.1785 10.4374 50.5 10.5C48.4676 10.6334 46.1149 10.2361 44.125 9.80196C41.7639 8.9949 39.4512 8.05529 37.5 6.5C35.8742 5.30104 34.4692 4.38645 33 3C32.3685 2.40219 31.3695 1.65503 30.5 1.65503C29.6305 1.65503 29.1315 1.9022 28.5 2.50001C27.0394 3.86496 26.0973 4.79789 24.5 6.00001C22.5191 7.54893 19.8722 9.16601 17.5 10C15.2751 10.5317 12.7809 10.6749 10.5 10.5C8.60334 10.4317 7.37839 10.3415 5.5 10.07C5.05149 10.0188 4.43384 9.94525 4 10.07C3.56616 10.1948 3.35276 9.78836 3 10.07C2.64724 10.3517 2.21763 10.6045 1.99993 11C1.78223 11.3955 2.04932 12.5513 2 13C1.85833 14.3883 1.41921 17.21 1.30587 21.375C1.04806 25.5086 1.40402 29.4298 2.16986 33.5C4.31299 40.2563 7.82721 45.8623 13.1874 50.5C17.4346 54.5036 21.8546 57.8215 26.7499 61C28.0673 61.8916 29.0464 62.5 30.6372 62.5C32.2279 62.5 33.1825 61.8916 34.4999 61C39.124 57.7242 43.4882 54.5024 47.4999 50.5C52.5438 45.8241 55.972 40.5721 57.9999 34C58.7821 29.8745 58.7742 25.69 58.5 21.5ZM32.5 58C32.1298 58.2571 30.9507 58.5 30.5 58.5C30.0493 58.5 28.8702 58.2571 28.5 58C24.9976 55.717 21.6773 52.9073 18.5 50.19L18 47.5C18 46.101 18.3709 44.5724 18.9062 43.2799C19.4416 41.9873 20.5107 39.9893 21.5 39C22.4893 38.0107 23.7075 37.2388 25 36.7034C26.2925 36.168 28.6006 35.5 29.9997 35.5C31.3987 35.5 33.2075 36.168 34.5 36.7034C35.7925 37.2388 37.0107 38.0107 38 39C38.9893 39.9893 39.9646 41.7075 40.5 43C41.0354 44.2925 41.5 45.601 41.5 47V50.5C38.719 52.9996 35.5508 55.8379 32.5 58ZM30 30.5C29.1987 30.5 27.6663 29.9452 27 29.5C26.3337 29.0548 25.8067 27.7403 25.5 27C25.1933 26.2597 24.8437 25.2859 25 24.5C25.1563 23.7141 25.9334 22.5666 26.5 22C27.0666 21.4334 28.2141 20.6563 29 20.5C29.7859 20.3437 31.7597 20.6933 32.5 21C33.2403 21.3067 34.0548 22.3337 34.5 23C34.9452 23.6663 35 25.1987 35 26C35 27.0746 34.2598 28.2402 33.5 29C32.7402 29.7598 31.0746 30.5 30 30.5ZM53.5 36C52 39 48.909 43.0092 45.5 46.5C45.0702 43.8327 44.1415 40.1459 42.5 38C40.8585 35.8541 37.4619 33.6128 35 32.5C35.9599 31.5991 37.4785 30.2088 38 29C38.5215 27.7912 38.9354 26.8282 38.9322 25.5117C38.9322 24.2355 38.3634 22.9475 37.875 21.7685C37.3866 20.5894 36.9024 20.4024 36 19.5C35.0976 18.5976 34.6791 17.9884 33.5 17.5C32.3209 17.0116 31.2759 16.5048 29.9997 16.5048C28.7234 16.5048 28.1791 16.5116 27 17C25.8209 17.4884 24.9024 18.0976 24 19C23.0976 19.9024 22.2384 20.5894 21.75 21.7685C21.2616 22.9475 21.0211 24.2071 21.0211 25.4834C21.0179 26.7998 20.9785 27.7912 21.5 29C22.0215 30.2088 23.5401 32.0991 24.5 33C22.0783 34.0857 19.13 35.9057 17.5 38C15.87 40.0943 14.9579 43.8859 14.5 46.5C11.0673 43.1287 6.94113 37.5905 5.5 33C4.88557 29.4272 4.79981 25.3882 5 21.7685C5 19.2751 5.33 15.7283 5.5 14C6.57667 14 8.58333 14.4433 10 14.5C12.8558 14.685 15.2231 14.192 18 13.5C21.0675 12.5025 23.6986 11.4652 26.2564 9.5C27.6731 8.45167 30.0367 6.765 31 6C31.9633 6.82167 33.5833 8.53667 35 9.5C37.5479 11.4807 39.9254 12.5195 43 13.5C45.5253 14.0794 47.9132 14.6471 50.5 14.5L54.4999 14C54.6416 15.7283 54.915 19.0067 55 21.5C55.2023 25.1292 55.9999 31.5 54.4999 34L53.5 36Z" fill="#0C49CD"/>
<path fill-rule="evenodd" clip-rule="evenodd" d="M58.1214 21.4273V21.375C58.1214 17.9014 57.7737 14.743 57.5838 13.0185C57.5532 12.7404 57.5266 12.4996 57.5064 12.3008L57.5059 12.2963C57.482 12.0551 57.4096 11.8212 57.293 11.6087C57.1765 11.3961 57.0182 11.2093 56.8277 11.0594C56.6372 10.9095 56.4184 10.7997 56.1844 10.7364C55.9513 10.6734 55.708 10.658 55.4689 10.6909C53.7593 10.937 52.0378 11.0929 50.3118 11.1581C48.1375 11.2987 45.9542 11.1344 43.8254 10.6699L43.7357 10.6504L43.6489 10.6207C41.1236 9.75748 38.7651 8.46742 36.6762 6.80672C35.0071 5.57438 33.4138 4.24263 31.905 2.81869L31.9031 2.81693C31.5688 2.50044 31.1259 2.32406 30.6656 2.32406C30.2052 2.32406 29.7624 2.50044 29.4281 2.81693L29.4206 2.82405C27.9221 4.22443 26.3503 5.54425 24.7119 6.77798C22.5969 8.42971 20.2271 9.72606 17.6954 10.6161L17.6172 10.6436L17.5366 10.6629C15.1606 11.2306 12.7109 11.4263 10.2751 11.2428C8.34109 11.172 6.41227 10.9983 4.49676 10.7226C4.26403 10.6986 4.02879 10.7194 3.80382 10.7842L3.36153 9.2465C3.79536 9.12171 4.24957 9.08383 4.69809 9.13503C6.57647 9.40646 8.46809 9.5767 10.3648 9.64503C12.6456 9.81997 14.9398 9.63835 17.1648 9.1067C19.537 8.2727 21.7572 7.05729 23.7381 5.50837C25.3354 4.30624 26.8675 3.01998 28.3281 1.65503C28.9595 1.05722 29.796 0.72406 30.6656 0.72406C31.5351 0.72406 32.3716 1.05722 33.0031 1.65503C34.4723 3.04148 36.024 4.33774 37.6498 5.5367C39.6009 7.09199 41.8054 8.29964 44.1664 9.1067C46.1564 9.54083 48.1974 9.69343 50.2298 9.56003C51.9082 9.4974 53.5822 9.34608 55.2448 9.1067C55.6982 9.04341 56.1598 9.07237 56.6018 9.19184C57.0439 9.31131 57.4572 9.51883 57.817 9.80195C58.1769 10.0851 58.4758 10.4379 58.696 10.8394C58.9161 11.2409 59.0529 11.6827 59.0981 12.1384C59.1175 12.3283 59.1432 12.5616 59.1732 12.8336C59.3625 14.5501 59.7214 17.8042 59.7214 21.375C59.9956 25.565 59.7386 29.7729 58.9564 33.8984C56.9285 40.4704 53.2053 46.3924 48.1614 51.0684C44.1497 55.0708 39.8089 58.7292 35.1848 62.005C33.8673 62.8967 32.313 63.3732 30.7223 63.3732C29.1315 63.3732 27.5772 62.8967 26.2598 62.005C21.3644 58.8265 16.7653 55.2136 12.5181 51.21C7.15789 46.5723 3.18621 40.5413 1.04309 33.785C0.277239 29.7149 0.0202695 25.5653 0.278085 21.4317C0.391418 17.2667 0.759752 13.555 0.901419 12.1667C0.950737 11.718 1.08819 11.2834 1.30589 10.8879C1.52359 10.4925 1.81725 10.1439 2.17001 9.86221C2.52277 9.58053 2.92769 9.37129 3.36153 9.2465L3.80382 10.7842C3.57246 10.8507 3.35651 10.9623 3.16838 11.1125C2.98025 11.2627 2.82364 11.4486 2.70755 11.6595C2.59229 11.8689 2.51921 12.0988 2.49242 12.3363C2.3513 13.7197 1.98898 17.3782 1.87749 21.4752L1.87673 21.5033L1.87498 21.5313C1.62744 25.5002 1.87017 29.4843 2.59759 33.3935C4.65821 39.8308 8.45257 45.5768 13.565 50.0001L13.5908 50.0224L13.6156 50.0458C17.7929 53.9834 22.3163 57.5369 27.1311 60.6631L27.1439 60.6714L27.1566 60.68C28.2092 61.3924 29.4512 61.7732 30.7223 61.7732C31.988 61.7732 33.2248 61.3956 34.2746 60.689C38.8201 57.4676 43.0873 53.8706 47.0314 49.9357L47.0521 49.915L47.0737 49.895C51.8895 45.4304 55.4502 39.7815 57.4011 33.5121C58.1451 29.5474 58.3883 25.505 58.1248 21.4795L58.1214 21.4273ZM32.8171 58.4981L32.8109 58.5024C32.1727 58.9457 31.4143 59.1833 30.6373 59.1833C29.8692 59.1833 29.1192 58.9512 28.4856 58.5176C24.9314 56.1998 21.5312 53.6539 18.3065 50.896L17.7464 50.417V47.3567C17.7464 45.7476 18.0634 44.1542 18.6791 42.6676C19.2949 41.1809 20.1975 39.8301 21.3353 38.6923C22.4732 37.5545 23.824 36.6519 25.3106 36.0361C26.7973 35.4203 28.3906 35.1034 29.9998 35.1034C31.6089 35.1034 33.2023 35.4203 34.6889 36.0361C36.1755 36.6519 37.5263 37.5545 38.6642 38.6923C39.802 39.8301 40.7046 41.1809 41.3204 42.6676C41.9362 44.1542 42.2531 45.7476 42.2531 47.3567V50.9032L41.7227 51.38C38.8958 53.9208 35.9244 56.2961 32.8232 58.4938L32.8171 58.4981ZM29.3764 57.1884C29.7466 57.4455 30.1865 57.5833 30.6373 57.5833C31.088 57.5833 31.5279 57.4455 31.8981 57.1884C34.9489 55.0263 37.8721 52.6896 40.6531 50.19V47.3567C40.6531 45.9577 40.3775 44.5724 39.8422 43.2798C39.3068 41.9873 38.5221 40.8129 37.5328 39.8237C36.5435 38.8344 35.3691 38.0497 34.0766 37.5143C32.7841 36.9789 31.3988 36.7034 29.9998 36.7034C28.6007 36.7034 27.2154 36.9789 25.9229 37.5143C24.6304 38.0497 23.456 38.8344 22.4667 39.8237C21.4775 40.8129 20.6927 41.9873 20.1574 43.2798C19.622 44.5724 19.3464 45.9577 19.3464 47.3567V49.68C22.5237 52.3973 25.8741 54.9054 29.3764 57.1884ZM53.4644 32.3981L53.4646 32.3967C53.478 32.3189 53.4911 32.2411 53.5041 32.1633C54.0863 28.6656 54.2805 25.1142 54.0831 21.5734C53.9981 19.08 53.8281 16.7284 53.6864 15L50.6264 15.1984C48.0397 15.3455 45.4451 15.1261 42.9198 14.5467C39.8451 13.5662 36.9676 12.0507 34.4198 10.07C33.0031 9.1067 31.7564 8.05837 30.7931 7.2367C30.5928 7.39576 30.3802 7.56584 30.1565 7.74491C29.304 8.42708 28.2885 9.23967 27.1664 10.07C24.6086 12.0352 21.7339 13.5492 18.6664 14.5467C15.8895 15.2387 13.0223 15.4967 10.1664 15.3117C9.50089 15.2851 8.85411 15.2209 8.24372 15.1604C7.55483 15.0921 6.91228 15.0284 6.34142 15.0284C6.32673 15.1777 6.31142 15.3314 6.29568 15.4893C6.12927 17.1593 5.91642 19.2954 5.91642 21.5734C5.71622 25.1931 5.92533 28.8239 6.53975 32.3967C7.78653 36.3681 9.8629 40.0209 12.623 43.117C13.0533 43.5996 13.5001 44.0687 13.9631 44.5234C14.0722 43.9002 14.2174 43.2858 14.3973 42.6829C14.972 40.7564 15.9013 38.948 17.1428 37.3529C18.4269 35.703 20.0142 34.3209 21.8141 33.2778C22.299 32.9968 22.7992 32.7404 23.3131 32.51C22.905 32.127 22.5322 31.71 22.1984 31.2643C21.7471 30.6616 21.367 30.0065 21.0672 29.3117C20.5457 28.1029 20.2782 26.7998 20.2814 25.4834C20.2814 24.2071 20.5328 22.9434 21.0212 21.7643C21.5096 20.5852 22.2254 19.5139 23.1279 18.6115C24.0303 17.709 25.1016 16.9932 26.2807 16.5048C27.4598 16.0164 28.7235 15.765 29.9998 15.765C31.276 15.765 32.5397 16.0164 33.7188 16.5048C34.8979 16.9932 35.9692 17.709 36.8717 18.6115C37.7741 19.5139 38.4899 20.5852 38.9783 21.7643C39.4667 22.9434 39.7181 24.2071 39.7181 25.4834C39.7213 26.7998 39.4538 28.1029 38.9323 29.3117C38.6323 30.0069 38.252 30.6625 37.8003 31.2654C37.4667 31.7107 37.0942 32.1273 36.6864 32.51C37.1992 32.7418 37.6984 32.9993 38.1821 33.2811C40.0211 34.3524 41.638 35.7753 42.9377 37.4743C44.1861 39.1063 45.1122 40.9543 45.6731 42.9191C45.8497 43.5378 45.9902 44.168 46.0931 44.8067C46.5568 44.3319 47.0041 43.843 47.4345 43.3408C50.1325 40.1933 52.1677 36.5257 53.4099 32.5575C53.4237 32.5134 53.4374 32.4692 53.451 32.425L53.4515 32.4236C53.4543 32.4146 53.457 32.4057 53.4598 32.3967V32.425C53.4613 32.4161 53.4628 32.4071 53.4644 32.3981ZM54.2045 32.6254L54.9893 32.8663C53.4825 37.7743 50.8249 42.2514 47.2378 45.9246L45.0187 48.1969L44.5135 45.0612C44.1258 42.6549 43.1477 40.3822 41.6669 38.4464C40.186 36.5106 38.2484 34.9719 36.0274 33.968L33.8457 32.9819L35.5914 31.3434C36.3914 30.5925 37.0285 29.6852 37.4632 28.6778C37.8978 27.6704 38.1208 26.5844 38.1181 25.4872L38.1181 25.4834C38.1181 24.4173 37.9081 23.3616 37.5001 22.3766C37.0921 21.3917 36.4941 20.4967 35.7403 19.7428C34.9864 18.989 34.0915 18.391 33.1065 17.983C32.1215 17.575 31.0659 17.365 29.9998 17.365C28.9336 17.365 27.878 17.575 26.893 17.983C25.908 18.391 25.0131 18.989 24.2592 19.7428C23.5054 20.4967 22.9074 21.3917 22.4994 22.3766C22.0914 23.3616 21.8814 24.4172 21.8814 25.4834V25.4872C21.8788 26.5844 22.1017 27.6704 22.5363 28.6778C22.971 29.6852 23.6081 30.5925 24.4081 31.3434L26.1596 32.9873L23.9676 33.97C21.7846 34.9487 19.8748 36.4477 18.4054 38.3356C16.936 40.2235 15.9518 42.4429 15.5391 44.7994L15.0139 47.798L12.842 45.6649C9.22181 42.1094 6.53305 37.7171 5.01321 32.8759L4.98108 32.7736L4.9629 32.6679C4.33055 28.9909 4.11372 25.2544 4.31644 21.529C4.31918 19.1839 4.53811 16.9891 4.70314 15.3346C4.71904 15.1752 4.73445 15.0208 4.7491 14.8717L4.89108 13.4284H6.34142C6.97195 13.4284 7.6528 13.4941 8.28389 13.5566C8.31946 13.5601 8.35497 13.5636 8.39042 13.5671C9.01033 13.6285 9.61357 13.6883 10.2304 13.713L10.2501 13.7138L10.2699 13.715C12.9423 13.8882 15.6253 13.6496 18.2251 13.0077C21.0993 12.0664 23.7931 10.6441 26.1916 8.80126L26.2031 8.79247L26.2147 8.78389C27.3099 7.97345 28.2948 7.18531 29.1456 6.50456C29.3728 6.32275 29.5905 6.14859 29.7981 5.98372L30.8294 5.16472L31.8314 6.01936C32.791 6.83786 33.9808 7.83664 35.3195 8.74695L35.3616 8.77558L35.4018 8.80683C37.7835 10.6583 40.471 12.0781 43.3425 13.002C45.6983 13.5362 48.1174 13.7379 50.5293 13.6013C50.5314 13.6012 50.5335 13.6011 50.5356 13.6009L55.1526 13.3016L55.2811 14.8693C55.4234 16.6061 55.5952 18.979 55.6816 21.5017C55.889 25.2456 55.6726 29.001 55.0366 32.6964L54.2045 32.6254ZM29.2093 21.5379C28.4234 21.6942 27.7014 22.0801 27.1348 22.6467C26.5682 23.2134 26.1823 23.9353 26.0259 24.7213C25.8696 25.5072 25.9498 26.3219 26.2565 27.0622C26.5632 27.8026 27.0825 28.4353 27.7488 28.8805C28.4151 29.3257 29.1984 29.5634 29.9998 29.5634C31.0743 29.5634 32.1049 29.1365 32.8647 28.3767C33.6246 27.6168 34.0514 26.5863 34.0514 25.5117C34.0514 24.7104 33.8138 23.927 33.3686 23.2607C32.9234 22.5944 32.2906 22.0751 31.5503 21.7684C30.8099 21.4618 29.9953 21.3815 29.2093 21.5379ZM29.9998 31.1634C28.882 31.1634 27.7893 30.8319 26.8599 30.2109C25.9305 29.5899 25.2061 28.7072 24.7783 27.6745C24.3505 26.6418 24.2386 25.5054 24.4567 24.4091C24.6748 23.3128 25.213 22.3058 26.0034 21.5154C26.7938 20.725 27.8009 20.1867 28.8972 19.9686C29.9935 19.7506 31.1299 19.8625 32.1626 20.2902C33.1953 20.718 34.0779 21.4424 34.6989 22.3718C35.32 23.3012 35.6514 24.3939 35.6514 25.5117C35.6514 27.0106 35.056 28.4481 33.9961 29.508C32.9362 30.5679 31.4987 31.1634 29.9998 31.1634Z" fill="white"/>
</svg>
