<svg xmlns="http://www.w3.org/2000/svg" style="display:none"><symbol id="help-icon-01" viewBox="0 0 67 67"><path d="M46.128 6.735l10.497 15.076a7.776 7.776 0 0 1 1.4 4.432v29.59a7.775 7.775 0 0 1-7.775 7.775h-33.5a7.775 7.775 0 0 1-7.775-7.775V11.167a7.775 7.775 0 0 1 7.775-7.775h23.003a7.774 7.774 0 0 1 3.597.889l.278-.53-.278.53a7.773 7.773 0 0 1 2.778 2.454zm-6.374 1.04H16.75a3.392 3.392 0 0 0-3.392 3.392v44.666a3.392 3.392 0 0 0 3.392 3.392h33.5a3.392 3.392 0 0 0 3.392-3.392V26.24a3.392 3.392 0 0 0-.61-1.933L42.535 9.233l-.494.342.493-.342a3.392 3.392 0 0 0-2.78-1.458z" fill="#0C49CD" stroke="#fff" stroke-width="1.2"/><path d="M35.691 33.5v.6h9.785c.297 0 .629.171.91.567.28.395.472.968.472 1.625 0 .656-.192 1.23-.472 1.624-.281.396-.613.567-.91.567H35.692v9.785c0 .297-.172.629-.568.91-.394.28-.968.472-1.624.472-.657 0-1.23-.192-1.624-.472-.397-.281-.568-.613-.568-.91v-9.785H21.524c-.297 0-.629-.17-.91-.567-.28-.394-.473-.968-.473-1.624 0-.657.193-1.23.472-1.625.282-.396.614-.567.91-.567h9.785v-9.785c0-.297.171-.628.568-.91.394-.28.967-.472 1.624-.472.656 0 1.23.192 1.624.472.396.282.567.613.567.91V33.5z" fill="#0C49CD" stroke="#fff" stroke-width="1.2"/></symbol><symbol id="help-icon-02" viewBox="0 0 59 62"><path fill-rule="evenodd" clip-rule="evenodd" d="M13.38 48.816c4.185 3.945 7.677 7.368 12.5 10.5 1.298.878 2.433 1 4 1 1.568 0 2.702-.122 4-1 4.556-3.228 8.547-6.556 12.5-10.5 4.97-4.607 8.502-9.525 10.5-16 .757-4.01.756-7.927.5-12 0-4.076.14-5.632 0-7-.044-.449-.283-2.104-.5-2.5-.217-.396.058-.93-.297-1.21-.354-.279-.267-.672-.703-.79-.435-.118-1.053-.062-1.5 0-1.638.236-3.346.438-5 .5-2.009.086-4.046-.025-6-.5-2.326-.795-4.577-1.968-6.5-3.5-1.602-1.181-3.052-2.134-4.5-3.5-.622-.589-1.643-1-2.5-1s-1.378.411-2 1c-1.439 1.345-3.426 2.316-5 3.5-1.952 1.526-4.163 2.678-6.5 3.5-2.192.524-4.253.672-6.5.5a50.641 50.641 0 0 1-5.5-.5c-.443-.054-1.071.379-1.5.5-.429.121-.652.222-1 .5s-.287.567-.5.958c-.213.392.045 1.598 0 2.042-.14 1.396-.388 3.011-.5 7.115-.254 4.073.245 7.875 1 11.885 2.12 6.637 6.227 11.946 11.5 16.5zm-8.5-28.385c0-2.457.333-5.412.5-7.115 1.061 0 3.104-.056 4.5 0 2.814.182 5.264.182 8-.5 3.022-.983 5.48-2.064 8-4 1.396-1.033 3.051-2.746 4-3.5.95.81 3.104 2.55 4.5 3.5 2.51 1.952 4.97 3.034 8 4 2.488.57 4.451.645 7 .5l4.5-.5c.14 1.703.416 6.043.5 8.5.2 3.576-.392 6.97-1 10.5-1.782 5.468-5.278 10.595-9.5 14.5-3.724 3.706-7.699 7.481-12 10.5-.364.253-1.556.5-2 .5-.444 0-1.135-.247-1.5-.5-4.545-2.95-9.057-6.782-13-10.5-4.496-3.839-8.12-9.395-10-15-.612-3.51-.686-7.327-.5-10.885z" fill="#0C49CD"/><path fill-rule="evenodd" clip-rule="evenodd" d="M26.524 59.102l.012.008a6.344 6.344 0 0 0 7.1.008 98.21 98.21 0 0 0 12.58-10.604l.019-.02.02-.018a37.08 37.08 0 0 0 10.198-16.179c.72-3.86.961-7.796.715-11.716l-.003-.047v-.047c0-3.427-.343-6.544-.53-8.243-.03-.273-.057-.51-.077-.706v-.004a1.85 1.85 0 0 0-2.094-1.65 48.439 48.439 0 0 1-5.091.46 22.939 22.939 0 0 1-6.389-.627l-.066-.016-.065-.022a22.912 22.912 0 0 1-6.848-3.747 50.83 50.83 0 0 1-4.695-3.924l-.002-.001a1.85 1.85 0 0 0-2.544 0l-.007.006a57.026 57.026 0 0 1-4.634 3.891 24.28 24.28 0 0 1-6.892 3.77l-.073.026-.076.018c-2.333.558-4.74.75-7.132.57a53.652 53.652 0 0 1-5.696-.513 1.85 1.85 0 0 0-2.052 1.65c-.139 1.39-.497 5.001-.607 9.047v.026l-.002.026a47.746 47.746 0 0 0 .713 11.71 36.327 36.327 0 0 0 10.83 16.346l-.98 1.136A37.827 37.827 0 0 1 .848 32.603 49.245 49.245 0 0 1 .096 20.43c.111-4.104.474-7.76.614-9.157a3.35 3.35 0 0 1 3.74-2.987c1.851.268 3.715.435 5.584.503a21.691 21.691 0 0 0 6.7-.53 22.779 22.779 0 0 0 6.476-3.546A55.523 55.523 0 0 0 27.733.917a3.35 3.35 0 0 1 4.606 0 49.318 49.318 0 0 0 4.579 3.825 21.413 21.413 0 0 0 6.42 3.517c1.954.475 3.966.672 5.975.587a46.955 46.955 0 0 0 4.94-.447 3.35 3.35 0 0 1 3.797 2.987l.075.685c.186 1.691.54 4.897.54 8.416a49.052 49.052 0 0 1-.754 12.171 38.58 38.58 0 0 1-10.636 16.918 99.72 99.72 0 0 1-12.786 10.776 7.844 7.844 0 0 1-8.794 0 95.78 95.78 0 0 1-13.54-10.636l1.03-1.092a94.283 94.283 0 0 0 13.327 10.47l.012.008zM4.71 12.594h1.36c.617 0 1.284.064 1.906.126l.106.01c.61.06 1.206.12 1.816.144l.019.001.018.001a25.832 25.832 0 0 0 7.865-.7 26.418 26.418 0 0 0 7.875-4.157l.01-.008.011-.008c1.08-.8 2.052-1.577 2.89-2.248l.643-.513.967-.768.94.802c.945.806 2.12 1.793 3.443 2.692l.039.027.038.03a25.524 25.524 0 0 0 7.85 4.146c2.33.529 4.722.728 7.106.593h.006l4.475-.29.12 1.47c.14 1.71.31 4.047.395 6.531a48.959 48.959 0 0 1-.635 11.014l-.018.107-.034.104a35.195 35.195 0 0 1-9.544 14.91A93.622 93.622 0 0 1 32.14 56.863l-.006.004a3.678 3.678 0 0 1-4.174.015 91.504 91.504 0 0 1-12.926-10.153A34.107 34.107 0 0 1 4.87 31.656l-.036-.108-.02-.111a48.96 48.96 0 0 1-.664-10.934c.002-2.308.218-4.468.38-6.1l.046-.456.133-1.353zm11.326 33.018a90.01 90.01 0 0 0 12.758 10.022 2.177 2.177 0 0 0 2.484 0c4.301-3.019 8.336-6.4 12.06-10.106a33.696 33.696 0 0 0 9.157-14.293c.608-3.53.814-7.116.614-10.692a137.78 137.78 0 0 0-.39-6.477l-3.016.195a27.08 27.08 0 0 1-7.593-.642 27.023 27.023 0 0 1-8.375-4.41c-1.396-.95-2.624-1.983-3.573-2.792l-.627.5c-.84.673-1.841 1.473-2.947 2.292a27.918 27.918 0 0 1-8.375 4.41 27.332 27.332 0 0 1-8.375.754 31.956 31.956 0 0 1-1.894-.149c-.679-.067-1.312-.13-1.874-.13l-.045.454c-.164 1.646-.374 3.75-.374 5.995-.186 3.558.03 7.126.642 10.636a32.607 32.607 0 0 0 9.743 14.433z" fill="#fff"/><path d="M31 19.188C31 18 30.233 17.5 29.5 17.5S28 18 28 19v15.188c0 1.38.736 1.812 1.5 1.812s1.5-.432 1.5-1.813v-15z" fill="#0C49CD"/><path fill-rule="evenodd" clip-rule="evenodd" d="M30.863 19.188a1.3 1.3 0 1 0-2.6 0v15a1.3 1.3 0 1 0 2.6 0v-15zm-1.3-2.5a2.5 2.5 0 0 1 2.5 2.5v15a2.5 2.5 0 0 1-5 0v-15a2.5 2.5 0 0 1 2.5-2.5z" fill="#fff"/><path d="M29.5 44.5c1.38 0 2-.598 2-1.98 0-1.38-.62-2.02-2-2.02s-2 .64-2 2.02c0 1.382.62 1.98 2 1.98z" fill="#0C49CD"/><path fill-rule="evenodd" clip-rule="evenodd" d="M29.563 44.22a1.7 1.7 0 1 0 0-3.4 1.7 1.7 0 0 0 0 3.4zm2.5-1.7a2.5 2.5 0 1 1-5 0 2.5 2.5 0 0 1 5 0z" fill="#fff"/></symbol><symbol id="help-icon-03" viewBox="0 0 63 63"><path d="M14.928 48.835l-.01-.009-.009-.008A35.179 35.179 0 0 1 4.468 33.033a45.705 45.705 0 0 1-.693-11.26v-.01l.001-.011c.104-3.836.444-7.256.575-8.566a2.55 2.55 0 0 1 .298-.963l-.527-.287.527.287a2.55 2.55 0 0 1 2.543-1.312c1.755.254 3.523.413 5.296.477a20.995 20.995 0 0 0 6.473-.514l.03-.007.03-.01a22.019 22.019 0 0 0 6.254-3.423A52.828 52.828 0 0 0 29.65 3.8l.005-.005a2.55 2.55 0 0 1 3.506 0 46.978 46.978 0 0 0 4.353 3.637 21.05 21.05 0 0 0 6.207 3.398l.018.007.018.005a2.027 2.027 0 0 1-1.062 3.912 24.812 24.812 0 0 1-7.677-4.046l-.015-.011-.016-.011C33.704 9.814 32.571 8.86 31.68 8.1l-.375-.32-.387.307-.596.476c-.79.631-1.718 1.375-2.748 2.137l-.006.004-.005.004a25.652 25.652 0 0 1-7.518 4.045 25.097 25.097 0 0 1-7.668.686h-.015c-.598-.024-1.18-.082-1.75-.138l-.104-.01c-.593-.06-1.18-.115-1.713-.115H8.25l-.053.54-.043.429c-.153 1.54-.353 3.542-.354 5.677a45.225 45.225 0 0 0 .586 10.252l.008.045.015.044a31.26 31.26 0 0 0 9.329 13.827A85.23 85.23 0 0 0 29.8 55.466a2.647 2.647 0 0 0 3.012-.005l.003-.002a87.23 87.23 0 0 0 11.41-9.56 32.284 32.284 0 0 0 8.792-13.687l.007-.023.006-.023a2.025 2.025 0 0 1 2.43-1.499h.002a2.025 2.025 0 0 1 1.523 2.41A35.994 35.994 0 0 1 47.13 48.7l-.007.007-.008.008a93.162 93.162 0 0 1-11.94 10.063 6.777 6.777 0 0 1-7.591-.003l-.01-.006a89.464 89.464 0 0 1-12.646-9.935z" fill="#0C49CD" stroke="#fff" stroke-width="1.2"/><path d="M30.71 21.95l.002.002 6.825 5.933.41.356.396-.372 17.533-16.537h.001a2.028 2.028 0 0 1 2.775 2.957L39.447 32.314a2.524 2.524 0 0 1-3.51-.241l-.023-.026-.026-.022-7.874-7.009-.003-.002a2.041 2.041 0 0 1 2.698-3.063z" fill="#0C49CD" stroke="#fff" stroke-width="1.2"/></symbol><symbol id="help-icon-04" viewBox="0 0 60 64"><path fill-rule="evenodd" clip-rule="evenodd" d="M58.5 21.5c0-4.137-.358-6.612-.5-8-.045-.456.22-.96 0-1.362-.22-.401-.14-.855-.5-1.138-.36-.283-.558-.88-1-1-.442-.12-1.047-.063-1.5 0-1.663.24-2.822.437-4.5.5-2.032.133-4.385-.264-6.375-.698-2.361-.807-4.674-1.747-6.625-3.302C35.874 5.301 34.47 4.386 33 3c-.632-.598-1.63-1.345-2.5-1.345-.87 0-1.369.247-2 .845-1.46 1.365-2.403 2.298-4 3.5-1.98 1.549-4.628 3.166-7 4-2.225.532-4.72.675-7 .5-1.897-.068-3.122-.159-5-.43-.449-.051-1.066-.125-1.5 0-.434.125-.647-.282-1 0s-.782.534-1 .93c-.218.396.05 1.551 0 2-.142 1.388-.58 4.21-.694 8.375-.258 4.134.098 8.055.864 12.125 2.143 6.756 5.657 12.362 11.017 17 4.248 4.004 8.668 7.322 13.563 10.5 1.317.892 2.296 1.5 3.887 1.5 1.59 0 2.545-.608 3.863-1.5 4.624-3.276 8.988-6.498 13-10.5 5.044-4.676 8.472-9.928 10.5-16.5.782-4.125.774-8.31.5-12.5zM32.5 58c-.37.257-1.55.5-2 .5-.45 0-1.63-.243-2-.5-3.502-2.283-6.823-5.093-10-7.81L18 47.5c0-1.399.37-2.928.906-4.22.536-1.293 1.605-3.29 2.594-4.28.99-.99 2.207-1.761 3.5-2.297 1.293-.535 3.6-1.203 5-1.203 1.399 0 3.208.668 4.5 1.203 1.292.536 2.51 1.308 3.5 2.297.99.99 1.965 2.708 2.5 4 .535 1.292 1 2.601 1 4v3.5c-2.781 2.5-5.95 5.338-9 7.5zM30 30.5c-.801 0-2.334-.555-3-1-.666-.445-1.193-1.76-1.5-2.5-.307-.74-.656-1.714-.5-2.5.156-.786.933-1.933 1.5-2.5s1.714-1.344 2.5-1.5c.786-.156 2.76.193 3.5.5.74.307 1.555 1.334 2 2 .445.666.5 2.199.5 3 0 1.075-.74 2.24-1.5 3-.76.76-2.425 1.5-3.5 1.5zM53.5 36c-1.5 3-4.591 7.01-8 10.5-.43-2.667-1.358-6.354-3-8.5s-5.038-4.387-7.5-5.5c.96-.9 2.478-2.291 3-3.5.522-1.209.935-2.172.932-3.488 0-1.277-.569-2.564-1.057-3.744-.488-1.179-.973-1.366-1.875-2.268-.902-.902-1.32-1.512-2.5-2s-2.224-.995-3.5-.995c-1.277 0-1.82.007-3 .495a8.796 8.796 0 0 0-3 2c-.902.902-1.762 1.59-2.25 2.768a9.686 9.686 0 0 0-.729 3.715c-.003 1.317-.043 2.308.479 3.517.521 1.209 2.04 3.1 3 4-2.422 1.086-5.37 2.906-7 5s-2.542 5.886-3 8.5c-3.433-3.371-7.559-8.91-9-13.5-.614-3.573-.7-7.612-.5-11.232 0-2.493.33-6.04.5-7.768 1.077 0 3.083.443 4.5.5 2.856.185 5.223-.308 8-1 3.067-.998 5.699-2.035 8.256-4C27.673 8.452 30.036 6.765 31 6c.963.822 2.583 2.537 4 3.5 2.548 1.98 4.925 3.02 8 4 2.525.58 4.913 1.147 7.5 1l4-.5c.142 1.728.415 5.007.5 7.5.202 3.63 1 10-.5 12.5l-1 2z" fill="#0C49CD"/><path fill-rule="evenodd" clip-rule="evenodd" d="M58.121 21.427v-.052c0-3.474-.347-6.632-.537-8.357l-.078-.717v-.005a1.798 1.798 0 0 0-2.037-1.605 49.24 49.24 0 0 1-5.157.467 23.357 23.357 0 0 1-6.487-.488l-.09-.02-.086-.03a23.331 23.331 0 0 1-6.973-3.813 51.644 51.644 0 0 1-4.771-3.988l-.002-.002a1.8 1.8 0 0 0-2.475 0l-.007.007a57.957 57.957 0 0 1-4.71 3.954 24.72 24.72 0 0 1-7.016 3.838l-.078.028-.08.019a23.614 23.614 0 0 1-7.262.58 54.575 54.575 0 0 1-5.778-.52 1.826 1.826 0 0 0-.693.061l-.442-1.538a3.428 3.428 0 0 1 1.336-.111c1.878.271 3.77.442 5.667.51 2.28.175 4.575-.007 6.8-.538a23.12 23.12 0 0 0 6.573-3.599 56.354 56.354 0 0 0 4.59-3.853 3.4 3.4 0 0 1 4.675 0 50.068 50.068 0 0 0 4.647 3.882 21.731 21.731 0 0 0 6.516 3.57 21.76 21.76 0 0 0 6.064.453 47.662 47.662 0 0 0 5.015-.453 3.4 3.4 0 0 1 3.853 3.031l.075.696c.19 1.716.548 4.97.548 8.541.275 4.19.018 8.398-.765 12.523a39.157 39.157 0 0 1-10.795 17.17 101.204 101.204 0 0 1-12.976 10.937 7.962 7.962 0 0 1-8.925 0A97.207 97.207 0 0 1 12.518 51.21 38.391 38.391 0 0 1 1.043 33.785a49.98 49.98 0 0 1-.765-12.353c.113-4.165.482-7.877.623-9.265a3.429 3.429 0 0 1 2.46-2.92l.443 1.537a1.828 1.828 0 0 0-1.312 1.552c-.14 1.384-.503 5.042-.615 9.14v.027l-.002.028a48.38 48.38 0 0 0 .723 11.863A36.792 36.792 0 0 0 13.565 50l.026.022.025.024A95.617 95.617 0 0 0 27.13 60.663l.013.008.013.009a6.362 6.362 0 0 0 7.118.009A99.612 99.612 0 0 0 47.03 49.936l.021-.021.022-.02A37.557 37.557 0 0 0 57.4 33.512c.744-3.965.987-8.007.724-12.032l-.004-.053zM32.817 58.498l-.006.004a3.81 3.81 0 0 1-4.325.016 98.144 98.144 0 0 1-10.18-7.622l-.56-.479v-3.06a12.255 12.255 0 0 1 23.574-4.69c.616 1.487.933 3.08.933 4.69v3.546l-.53.477a98.585 98.585 0 0 1-8.9 7.114l-.006.004zm-3.44-1.31a2.21 2.21 0 0 0 2.521 0 96.997 96.997 0 0 0 8.755-6.998v-2.833A10.655 10.655 0 0 0 30 36.703a10.653 10.653 0 0 0-10.654 10.654v2.323a96.565 96.565 0 0 0 10.03 7.508zm24.087-24.79v-.001l.04-.234c.582-3.497.777-7.049.58-10.59A139.747 139.747 0 0 0 53.685 15l-3.06.198a27.484 27.484 0 0 1-7.706-.651 27.424 27.424 0 0 1-8.5-4.477c-1.417-.963-2.664-2.012-3.627-2.833l-.636.508a98.187 98.187 0 0 1-2.99 2.325 28.332 28.332 0 0 1-8.5 4.477c-2.778.692-5.645.95-8.5.765-.666-.027-1.313-.091-1.923-.152-.69-.068-1.332-.132-1.903-.132l-.045.461c-.167 1.67-.38 3.806-.38 6.084-.2 3.62.01 7.25.624 10.824a29.297 29.297 0 0 0 7.423 12.126 16.216 16.216 0 0 1 3.18-7.17 16.234 16.234 0 0 1 6.17-4.843 9.603 9.603 0 0 1-3.032-7.027 9.718 9.718 0 1 1 18.651 3.829 9.606 9.606 0 0 1-2.246 3.198 16.348 16.348 0 0 1 9.407 12.297 30.629 30.629 0 0 0 7.358-12.382v-.001l.009-.027v.028l.004-.027zm.74.227l.785.241a32.228 32.228 0 0 1-7.751 13.059l-2.22 2.272-.505-3.136a14.749 14.749 0 0 0-8.486-11.093l-2.181-.986 1.745-1.639a8.006 8.006 0 0 0 2.527-5.856v-.004a8.119 8.119 0 0 0-16.237 0v.004a8.007 8.007 0 0 0 2.527 5.856l1.752 1.644-2.192.983a14.636 14.636 0 0 0-8.429 10.83l-.525 2.998-2.172-2.133a30.897 30.897 0 0 1-7.829-12.79l-.032-.101-.018-.106a49.767 49.767 0 0 1-.647-11.139c.003-2.345.222-4.54.387-6.194l.046-.463.142-1.444h1.45c.63 0 1.312.066 1.943.129l.106.01c.62.062 1.224.121 1.84.146h.02l.02.002a26.136 26.136 0 0 0 7.955-.707A26.73 26.73 0 0 0 26.192 8.8l.011-.009.012-.008c1.095-.81 2.08-1.599 2.93-2.28l.653-.52 1.031-.82 1.002.855c.96.819 2.15 1.818 3.488 2.728l.043.029.04.03a25.827 25.827 0 0 0 7.94 4.196 25.88 25.88 0 0 0 7.187.6l.007-.001 4.617-.3.128 1.568c.142 1.737.314 4.11.4 6.633.208 3.744-.008 7.499-.644 11.194l-.832-.07zM29.21 21.538a4.052 4.052 0 1 0 1.581 7.947 4.052 4.052 0 0 0-1.58-7.947zm.79 9.625a5.652 5.652 0 1 1 0-11.303 5.652 5.652 0 0 1 0 11.303z" fill="#fff"/></symbol><symbol id="help-icon-05" viewBox="0 0 59 63"><path fill-rule="evenodd" clip-rule="evenodd" d="M13.5 49.5c4.185 3.945 7.677 7.368 12.5 10.5 1.298.879 2.433 1 4 1 1.567 0 2.702-.121 4-1 4.556-3.228 8.547-6.556 12.5-10.5 4.97-4.607 8.502-9.525 10.5-16 .757-4.01.756-7.927.5-12 0-4.076.14-5.632 0-7-.045-.449-.283-2.104-.5-2.5-.217-.396.058-.93-.297-1.21-.355-.279-.268-.672-.703-.79-.436-.118-1.053-.062-1.5 0-1.638.236-3.346.438-5 .5-2.01.086-4.046-.025-6-.5-2.327-.795-4.578-1.968-6.5-3.5-1.602-1.181-3.053-2.134-4.5-3.5-.622-.589-1.643-1-2.5-1s-1.378.411-2 1c-1.44 1.345-3.427 2.316-5 3.5-1.952 1.526-4.163 2.678-6.5 3.5-2.193.524-4.253.672-6.5.5a50.641 50.641 0 0 1-5.5-.5c-.443-.054-1.071.379-1.5.5-.43.121-.652.222-1 .5-.349.278-.287.567-.5.958-.214.392.045 1.598 0 2.042-.14 1.396-.388 3.011-.5 7.115C.746 25.188 1.245 28.99 2 33c2.12 6.637 6.227 11.946 11.5 16.5zM5 21.115c0-2.457.332-5.412.5-7.115 1.06 0 3.104-.056 4.5 0 2.813.182 5.264.182 8-.5 3.022-.983 5.48-2.064 8-4 1.395-1.033 3.05-2.746 4-3.5.95.81 3.104 2.55 4.5 3.5 2.51 1.952 4.97 3.034 8 4 2.488.57 4.451.645 7 .5l4.5-.5c.14 1.703.416 6.043.5 8.5.2 3.576-.393 6.97-1 10.5-1.783 5.468-5.278 10.595-9.5 14.5-3.725 3.706-7.7 7.481-12 10.5-.365.253-1.556.5-2 .5-.444 0-1.135-.247-1.5-.5-4.546-2.95-9.058-6.782-13-10.5-4.496-3.839-8.12-9.395-10-15-.613-3.51-.686-7.327-.5-10.885z" fill="#0C49CD"/><path fill-rule="evenodd" clip-rule="evenodd" d="M26.644 59.786l.012.008a6.345 6.345 0 0 0 7.1.008 98.217 98.217 0 0 0 12.579-10.604l.02-.02.02-.018a37.08 37.08 0 0 0 10.197-16.18c.721-3.86.962-7.795.715-11.715l-.003-.047v-.047c0-3.427-.343-6.544-.53-8.243a90.8 90.8 0 0 1-.076-.706v-.004a1.852 1.852 0 0 0-2.094-1.65 48.447 48.447 0 0 1-5.092.46 22.936 22.936 0 0 1-6.388-.627l-.066-.016-.065-.022a22.91 22.91 0 0 1-6.849-3.747 50.819 50.819 0 0 1-4.695-3.924l-.001-.001a1.85 1.85 0 0 0-2.544 0l-.007.006a57.026 57.026 0 0 1-4.634 3.891 24.28 24.28 0 0 1-6.892 3.77l-.073.026-.076.018c-2.334.558-4.74.75-7.133.57a53.702 53.702 0 0 1-5.695-.513 1.848 1.848 0 0 0-2.052 1.65c-.14 1.39-.497 5.001-.607 9.047l-.001.026-.002.026a47.745 47.745 0 0 0 .714 11.71 36.327 36.327 0 0 0 10.83 16.346l-.98 1.136A37.827 37.827 0 0 1 .968 33.287a49.245 49.245 0 0 1-.754-12.172c.112-4.104.475-7.76.614-9.157A3.35 3.35 0 0 1 4.57 8.971c1.85.268 3.715.435 5.583.503a21.691 21.691 0 0 0 6.7-.53 22.78 22.78 0 0 0 6.477-3.546A55.522 55.522 0 0 0 27.853 1.6a3.35 3.35 0 0 1 4.606 0 49.318 49.318 0 0 0 4.578 3.825 21.412 21.412 0 0 0 6.421 3.517 21.44 21.44 0 0 0 5.974.587 46.959 46.959 0 0 0 4.941-.447 3.35 3.35 0 0 1 3.797 2.987l.074.685c.187 1.691.54 4.897.54 8.416a49.048 49.048 0 0 1-.753 12.172A38.582 38.582 0 0 1 47.394 50.26 99.71 99.71 0 0 1 34.61 61.036a7.845 7.845 0 0 1-8.794 0A95.784 95.784 0 0 1 12.275 50.4l1.029-1.092a94.29 94.29 0 0 0 13.328 10.47l.012.008zM4.83 13.278h1.36c.616 0 1.283.064 1.906.126l.105.01c.61.06 1.207.12 1.817.144l.018.001.019.001a25.83 25.83 0 0 0 7.864-.7 26.416 26.416 0 0 0 7.875-4.157l.01-.008.012-.008c1.08-.8 2.052-1.577 2.89-2.248.224-.18.438-.35.643-.513l.966-.768.94.802c.945.806 2.12 1.793 3.443 2.692l.04.027.037.03a25.524 25.524 0 0 0 7.851 4.146c2.33.529 4.721.728 7.106.593h.006l4.475-.29.12 1.47c.14 1.71.31 4.047.395 6.531a48.96 48.96 0 0 1-.635 11.014l-.019.107-.033.104a35.196 35.196 0 0 1-9.544 14.91A93.636 93.636 0 0 1 32.26 57.547l-.006.004a3.678 3.678 0 0 1-4.174.015 91.49 91.49 0 0 1-12.927-10.153A34.107 34.107 0 0 1 4.99 32.34l-.036-.108-.019-.111a48.959 48.959 0 0 1-.664-10.934c.002-2.308.218-4.469.38-6.1l.046-.456.133-1.353zm11.326 33.018a89.993 89.993 0 0 0 12.758 10.022 2.177 2.177 0 0 0 2.484 0c4.3-3.019 8.336-6.4 12.06-10.106a33.696 33.696 0 0 0 9.157-14.293 47.46 47.46 0 0 0 .614-10.692 137.922 137.922 0 0 0-.39-6.477l-3.016.195a27.078 27.078 0 0 1-7.593-.642 27.024 27.024 0 0 1-8.375-4.41C32.459 8.942 31.23 7.91 30.28 7.1l-.627.5c-.84.673-1.84 1.473-2.946 2.291a27.917 27.917 0 0 1-8.375 4.411 27.33 27.33 0 0 1-8.375.754c-.656-.026-1.293-.09-1.894-.149-.68-.067-1.312-.13-1.875-.13l-.045.454c-.164 1.646-.373 3.75-.373 5.995-.186 3.558.029 7.126.642 10.636a32.606 32.606 0 0 0 9.743 14.433z" fill="#fff"/></symbol><symbol id="help-icon-06" viewBox="0 0 69 69"><path d="M8.625 58.25h51.75a2.125 2.125 0 0 1 0 4.25H8.625a2.125 2.125 0 0 1 0-4.25zM12.25 51.75V31.625a2.125 2.125 0 0 1 3.628-1.503l.53-.53-.53.53c.398.399.622.94.622 1.503V51.75a2.125 2.125 0 0 1-4.25 0zM26.625 51.75V31.625a2.125 2.125 0 0 1 3.628-1.503l.53-.53-.53.53c.398.399.622.94.622 1.503V51.75a2.125 2.125 0 0 1-4.25 0zM41 51.75V31.625a2.125 2.125 0 0 1 3.628-1.503l.53-.53-.53.53c.398.399.622.94.622 1.503V51.75a2.125 2.125 0 0 1-4.25 0zM55.375 51.75V31.625a2.125 2.125 0 0 1 4.25 0V51.75a2.125 2.125 0 0 1-4.25 0zM10.954 25.125h-.023A3.563 3.563 0 0 1 9.007 18.5l.004-.002L31.838 4.812a5 5 0 0 1 5.15 0l.004.002 23 13.685a3.562 3.562 0 0 1-1.923 6.627H10.954zM34.886 8.471L34.5 8.24l-.386.23-18.37 11.012-2.325 1.393H55.58l-2.324-1.393L34.886 8.471z" fill="#0C49CD" stroke="#fff" stroke-width="1.5"/></symbol><symbol id="temp-icon-left-arrow" viewBox="0 0 31.494 31.494"><path d="M10.273 5.01a1.117 1.117 0 0 1 1.587 1.57l-8.047 8.047h26.554c.62 0 1.127.492 1.127 1.11 0 .62-.508 1.128-1.127 1.128H3.813l8.047 8.032c.43.444.43 1.16 0 1.587a1.112 1.112 0 0 1-1.587 0L.32 16.532a1.12 1.12 0 0 1 0-1.57l9.953-9.953z" fill="#1E201D"/></symbol><symbol id="temp-icon-right-arrow" viewBox="0 0 31.49 31.49"><path d="M21.205 5.007a1.117 1.117 0 0 0-1.587 1.57l8.047 8.048H1.11c-.618 0-1.11.493-1.11 1.112 0 .62.492 1.127 1.11 1.127h26.555l-8.047 8.032c-.43.444-.43 1.16 0 1.587.444.444 1.16.444 1.587 0l9.952-9.952a1.092 1.092 0 0 0 0-1.57l-9.952-9.95z" fill="#1E201D"/></symbol></svg>